<?xml version="1.0" encoding="UTF-8" standalone="no"?>
<!-- Generator: Adobe Illustrator 16.0.0, SVG Export Plug-In . SVG Version: 6.00 Build 0)  -->

<svg
   xmlns:dc="http://purl.org/dc/elements/1.1/"
   xmlns:cc="http://creativecommons.org/ns#"
   xmlns:rdf="http://www.w3.org/1999/02/22-rdf-syntax-ns#"
   xmlns:svg="http://www.w3.org/2000/svg"
   xmlns="http://www.w3.org/2000/svg"
   xmlns:sodipodi="http://sodipodi.sourceforge.net/DTD/sodipodi-0.dtd"
   xmlns:inkscape="http://www.inkscape.org/namespaces/inkscape"
   version="1.1"
   id="Layer_1"
   x="0px"
   y="0px"
   width="607.629px"
   height="237.15px"
   viewBox="36.186 445.425 607.629 237.15"
   enable-background="new 36.186 445.425 607.629 237.15"
   xml:space="preserve"
   inkscape:version="0.91 r13725"
   sodipodi:docname="logo.svg"><metadata
   id="metadata4744"><rdf:RDF><cc:Work
       rdf:about=""><dc:format>image/svg+xml</dc:format><dc:type
         rdf:resource="http://purl.org/dc/dcmitype/StillImage" /></cc:Work></rdf:RDF></metadata><defs
   id="defs4742" /><sodipodi:namedview
   pagecolor="#ffffff"
   bordercolor="#666666"
   borderopacity="1"
   objecttolerance="10"
   gridtolerance="10"
   guidetolerance="10"
   inkscape:pageopacity="0"
   inkscape:pageshadow="2"
   inkscape:window-width="1920"
   inkscape:window-height="1051"
   id="namedview4740"
   showgrid="false"
   inkscape:zoom="1.5733422"
   inkscape:cx="244.41253"
   inkscape:cy="146.49927"
   inkscape:window-x="-9"
   inkscape:window-y="-9"
   inkscape:window-maximized="1"
   inkscape:current-layer="Layer_1" />


<g
   id="h"
   transform="matrix(12.236669,0,0,-12.236669,102.54866,511.91931)"><path
     style="fill:#4285f4"
     inkscape:connector-curvature="0"
     d="m -1.5,3.309 a 1,1 0 0 1 -1,-1 l 0,-4.618 A 1,1 0 0 1 -1,-3.175 l 1.5,0.866 0,1.809 -1,0 0,-1 -1,0 0,4.809"
     id="l" /><path
     style="fill:#ea4335"
     inkscape:connector-curvature="0"
     d="m -0.5,2.887 0,-2.387 1,0 0,0.25 1,0 0,-2.482 1.5,0.866 a 1,1 0 0 1 0,1.732 z"
     id="t" /></g><circle
   style="opacity:0.5;fill:#f70000;fill-opacity:1;stroke:#000000;stroke-width:0;stroke-miterlimit:3.96756768;stroke-dasharray:none;stroke-opacity:1"
   id="path6410"
   cx="106.00764"
   cy="507.69455"
   r="71.186043" /></svg>