<?xml version="1.0"?><svg version="1.0" xmlns="http://www.w3.org/2000/svg" viewBox="0 0 400 400"><g transform="translate(0,400) scale(0.1,-0.1)"><path fill="#fff" d="M1670 3319 c-366 -20 -661 -154 -899 -405 -149 -157 -247 -322 -293 -490 -31 -116 -31 -303 -1 -399 68 -214 233 -358 516 -450 l97 -32 -21 -27 c-29 -37 -68 -55 -136 -62 -81 -9 -103 -25 -103 -74 0 -30 6 -43 26 -59 72 -57 211 9 304 144 l31 45 34 -14 c55 -23 166 -98 375 -254 330 -246 461 -324 655 -387 147 -48 233 -58 463 -52 169 4 211 8 293 30 134 35 240 82 292 128 49 43 64 78 46 112 -20 36 -41 46 -99 47 -66 0 -92 -15 -148 -86 -77 -98 -162 -134 -315 -134 -237 0 -436 95 -872 416 -82 61 -182 132 -222 160 -40 27 -73 51 -73 54 0 3 33 12 72 18 240 41 483 168 663 346 165 163 278 344 326 521 32 116 32 303 2 400 -39 124 -123 243 -227 322 -132 100 -332 169 -516 179 -52 3 -108 6 -125 7 -16 2 -82 0 -145 -4z m15 -129 c-9 -14 -80 -49 -204 -101 -122 -50 -230 -118 -285 -179 -105 -116 -127 -310 -46 -392 35 -35 73 -36 105 -3 33 32 31 53 -10 114 -28 40 -35 60 -35 98 0 62 31 125 84 168 41 33 293 161 302 153 2 -2 -12 -44 -32 -94 -48 -122 -129 -382 -209 -669 -85 -309 -173 -575 -190 -575 -25 0 -134 81 -186 138 -106 116 -153 259 -153 462 1 158 19 258 69 373 113 265 293 424 556 492 97 25 246 34 234 15z m236 -25 c205 -69 352 -230 394 -430 40 -189 3 -451 -90 -635 -38 -77 -50 -88 -123 -110 -80 -25 -119 -26 -126 -2 -26 86 -197 997 -214 1141 l-9 73 49 -6 c26 -4 80 -17 119 -31z m-265 -376 c8 -63 29 -192 46 -287 18 -100 27 -177 22 -182 -10 -9 -287 -100 -292 -95 -4 4 90 335 150 522 28 90 53 161 55 159 2 -2 11 -55 19 -117z m115 -644 c7 -38 15 -127 18 -197 l6 -127 68 30 c60 27 236 73 245 65 7 -8 -137 -130 -188 -160 -72 -42 -170 -82 -251 -101 -106 -25 -370 -16 -401 14 -4 3 10 58 31 121 21 63 51 161 66 217 l29 103 175 59 c97 32 179 56 182 52 4 -3 12 -37 20 -76z"/></g></svg>
